<svg xmlns="http://www.w3.org/2000/svg" width="1024" height="1024" viewBox="0 0 1024 1024">
  <!-- 定义滤镜效果 -->
  <defs>
    <!-- 噪点滤镜 -->
    <filter id="noise" x="0%" y="0%" width="100%" height="100%">
      <feTurbulence type="fractalNoise" baseFrequency="0.65" numOctaves="3" stitchTiles="stitch"/>
      <feColorMatrix type="saturate" values="0"/>
      <feBlend mode="overlay" in="SourceGraphic" result="noiseOverlay"/>
    </filter>
    
    <!-- 阴影滤镜 -->
    <filter id="shadow" x="-20%" y="-20%" width="140%" height="140%">
      <feDropShadow dx="2" dy="2" stdDeviation="4" flood-opacity="0.3"/>
    </filter>
    
    <!-- 石块图案 -->
    <pattern id="stonePattern" width="200" height="200" patternUnits="userSpaceOnUse">
      <!-- 石块1 -->
      <g filter="url(#shadow)">
        <rect x="10" y="10" width="80" height="80" rx="5" ry="5" fill="#7a7a7a"/>
        <rect x="12" y="12" width="76" height="76" rx="3" ry="3" fill="#8a8a8a"/>
        <!-- 石块纹理 -->
        <path d="M20,20 Q45,30 70,20 T110,20" stroke="#6a6a6a" stroke-width="1" fill="none" opacity="0.5"/>
        <path d="M20,40 Q45,50 70,40 T110,40" stroke="#6a6a6a" stroke-width="1" fill="none" opacity="0.5"/>
        <path d="M20,60 Q45,70 70,60 T110,60" stroke="#6a6a6a" stroke-width="1" fill="none" opacity="0.5"/>
      </g>
      
      <!-- 石块2 -->
      <g filter="url(#shadow)">
        <rect x="110" y="10" width="80" height="120" rx="5" ry="5" fill="#757575"/>
        <rect x="112" y="12" width="76" height="116" rx="3" ry="3" fill="#858585"/>
        <!-- 石块纹理 -->
        <path d="M120,20 Q150,30 180,20 T220,20" stroke="#656565" stroke-width="1" fill="none" opacity="0.5"/>
        <path d="M120,50 Q150,60 180,50 T220,50" stroke="#656565" stroke-width="1" fill="none" opacity="0.5"/>
        <path d="M120,80 Q150,90 180,80 T220,80" stroke="#656565" stroke-width="1" fill="none" opacity="0.5"/>
        <path d="M120,110 Q150,120 180,110 T220,110" stroke="#656565" stroke-width="1" fill="none" opacity="0.5"/>
      </g>
      
      <!-- 石块3 -->
      <g filter="url(#shadow)">
        <rect x="10" y="110" width="100" height="80" rx="5" ry="5" fill="#787878"/>
        <rect x="12" y="112" width="96" height="76" rx="3" ry="3" fill="#888888"/>
        <!-- 石块纹理 -->
        <path d="M20,120 Q60,130 100,120 T140,120" stroke="#686868" stroke-width="1" fill="none" opacity="0.5"/>
        <path d="M20,150 Q60,160 100,150 T140,150" stroke="#686868" stroke-width="1" fill="none" opacity="0.5"/>
        <path d="M20,180 Q60,190 100,180 T140,180" stroke="#686868" stroke-width="1" fill="none" opacity="0.5"/>
      </g>
      
      <!-- 石块4 -->
      <g filter="url(#shadow)">
        <rect x="130" y="150" width="60" height="40" rx="5" ry="5" fill="#727272"/>
        <rect x="132" y="152" width="56" height="36" rx="3" ry="3" fill="#828282"/>
        <!-- 石块纹理 -->
        <path d="M140,160 Q160,165 180,160" stroke="#626262" stroke-width="1" fill="none" opacity="0.5"/>
      </g>
      
      <!-- 石块5 -->
      <g filter="url(#shadow)">
        <rect x="10" y="10" width="80" height="80" rx="5" ry="5" fill="#7a7a7a"/>
        <rect x="12" y="12" width="76" height="76" rx="3" ry="3" fill="#8a8a8a"/>
      </g>
      
      <!-- 裂缝 -->
      <path d="M0,150 Q200,200 400,150" stroke="#5a5a5a" stroke-width="2" fill="none" opacity="0.7" stroke-linecap="round"/>
      <path d="M0,50 Q150,100 300,50" stroke="#5a5a5a" stroke-width="1" fill="none" opacity="0.6" stroke-linecap="round"/>
    </pattern>
    
    <!-- 苔藓效果 -->
    <filter id="moss" x="0%" y="0%" width="100%" height="100%">
      <feTurbulence type="fractalNoise" baseFrequency="0.03" numOctaves="3" seed="1" stitchTiles="stitch" result="turbulence1"/>
      <feColorMatrix in="turbulence1" type="matrix" values="0 0 0 0 0.1, 0 0 0 0 0.3, 0 0 0 0 0.05, 0 0 0 0.5 0" result="mossColor1"/>
      <feTurbulence type="fractalNoise" baseFrequency="0.08" numOctaves="2" seed="2" stitchTiles="stitch" result="turbulence2"/>
      <feColorMatrix in="turbulence2" type="matrix" values="0 0 0 0 0.15, 0 0 0 0 0.4, 0 0 0 0 0.08, 0 0 0 0.3 0" result="mossColor2"/>
      <feBlend in="mossColor1" in2="mossColor2" mode="screen" result="combinedMoss"/>
      <feBlend in="SourceGraphic" in2="combinedMoss" mode="multiply"/>
    </filter>
    
    <!-- 凹凸效果 -->
    <filter id="bump" x="-10%" y="-10%" width="120%" height="120%">
      <feTurbulence type="fractalNoise" baseFrequency="0.2" numOctaves="4" seed="3" stitchTiles="stitch" result="noise"/>
      <feColorMatrix in="noise" type="luminanceToAlpha" result="alphaMap"/>
      <feDisplacementMap in="SourceGraphic" in2="alphaMap" scale="5" xChannelSelector="R" yChannelSelector="G" result="bumped"/>
      <feComposite in="bumped" in2="SourceGraphic" operator="over"/>
    </filter>
  </defs>
  
  <!-- 主背景 -->
  <rect width="1024" height="1024" fill="#6a6a6a"/>
  
  <!-- 石块图案层（带凹凸效果） -->
  <rect width="1024" height="1024" fill="url(#stonePattern)" filter="url(#bump)"/>
  
  <!-- 苔藓效果层 -->
  <rect width="1024" height="1024" fill="#000" opacity="0.15" filter="url(#moss)"/>
  
  <!-- 噪点层 -->
  <rect width="1024" height="1024" fill="#000" opacity="0.05" filter="url(#noise)"/>
  
  <!-- 高光效果 -->
  <rect width="1024" height="512" fill="#fff" opacity="0.03"/>
  
  <!-- 底部阴影 -->
  <rect width="1024" height="200" y="824" fill="#000" opacity="0.1"/>
</svg>